<?xml version="1.0" encoding="UTF-8"?>
<svg id="Layer_1" data-name="Layer 1" xmlns="http://www.w3.org/2000/svg" viewBox="0 0 24.03 17.73">
  <defs>
    <style>
      .cls-1 {
        fill: #fff;
        stroke-width: 0px;
      }
    </style>
  </defs>
  <text/>
  <path class="cls-1" d="M24.03,14.59c-.03.1-.05.21-.08.31-.38,1.72-1.78,2.82-3.6,2.82-4.94,0-9.87,0-14.81,0-.81,0-1.61.02-2.41-.04-1.68-.14-3.09-1.59-3.11-3.27-.04-3.12-.01-6.24-.01-9.4.09.05.17.1.25.14,3.61,2.2,7.22,4.39,10.83,6.61.65.4,1.23.39,1.88,0,3.61-2.21,7.23-4.41,10.85-6.62.07-.04.15-.08.22-.12v9.57Z"/>
  <path class="cls-1" d="M.12,2.78C.32,1.53,1.46.37,2.77.1,3.07.03,3.38,0,3.68,0,9.24,0,14.8,0,20.36,0c1.67,0,3.04,1,3.51,2.52.06.18.03.28-.15.39-3.84,2.34-7.67,4.68-11.5,7.02-.13.08-.22.12-.38.02C7.99,7.59,4.13,5.24.27,2.88c-.05-.03-.1-.07-.15-.1Z"/>
</svg>