<?xml version="1.0" encoding="UTF-8"?>
<svg id="Layer_1" data-name="Layer 1" xmlns="http://www.w3.org/2000/svg" viewBox="0 0 19.14 19.11">
  <defs>
    <style>
      .cls-1 {
        fill: #fff;
        stroke-width: 0px;
      }
    </style>
  </defs>
  <path class="cls-1" d="M15.12,19.1c-4.36-.12-8.06-1.75-11.04-4.95C2.21,12.14.99,9.77.37,7.09.12,5.98,0,4.85,0,3.71,0,1.9,1.34.32,3.12.04,3.46-.01,3.82.01,4.17,0c.12,0,.16.06.19.17.4,1.37.8,2.73,1.2,4.1.21.7.4,1.41.62,2.1.04.14,0,.19-.11.24-.52.24-1.03.5-1.54.74-.15.07-.18.14-.12.3,1.16,3.08,3.22,5.33,6.2,6.72.3.14.62.25.92.38.15.06.22.02.28-.12.24-.53.5-1.05.74-1.58.05-.12.1-.15.24-.11,2.06.6,4.12,1.2,6.18,1.79.13.04.16.12.17.23.09,1.02-.15,1.94-.79,2.75-.64.81-1.49,1.27-2.51,1.4-.23.03-.46,0-.7,0Z"/>
</svg>